PathFileType	4	(X/Y/Z)	9_coords_data.trc
DataRate	CameraRate	NumFrames	NumMarkers	Units	OrigDataRate	OrigDataStartFrame	OrigNumFrames
30.0	30.0	7	21	m	30.0	10	47
Frame#	Time	THUMB_TIP	THUMB_IP	THUMB_MCP	THUMB_CMC	INDEX_TIP	INDEX_DIP	INDEX_PIP	INDEX_MCP	MIDDLE_TIP	MIDDLE_DIP	MIDDLE_PIP	MIDDLE_MCP	RING_TIP	RING_DIP	RING_PIP	RING_MCP	PINKY_TIP	PINKY_DIP	PINKY_PIP	PINKY_MCP	WRIST
X1	Y1	Z1	X2	Y2	Z2	X3	Y3	Z3	X4	Y4	Z4	X5	Y5	Z5	X6	Y6	Z6	X7	Y7	Z7	X8	Y8	Z8	X9	Y9	Z9	X10	Y10	Z10	X11	Y11	Z11	X12	Y12	Z12	X13	Y13	Z13	X14	Y14	Z14	X15	Y15	Z15	X16	Y16	Z16	X17	Y17	Z17	X18	Y18	Z18	X19	Y19	Z19	X20	Y20	Z20	X21	Y21	Z21
9	0.3	0.00576092004776001	-0.12059500122070313	0.9944949951171875	0.012572199821472167	-0.09620159912109374	1.0036699829101563	0.009628769874572753	-0.07171700286865235	1.0215399780273438	0.005911409854888916	-0.03985919952392578	1.03977001953125	0.01825429916381836	-0.06367720031738282	0.8969730224609375	0.0202367000579834	-0.058980899810791014	0.9197639770507813	0.019431800842285157	-0.053930999755859375	0.9420479736328125	0.01822170066833496	-0.04450799942016601	0.981176025390625	0.008280659675598144	-0.016727100372314452	0.8821060180664062	0.013703200340270996	-0.020026100158691405	0.907333984375	0.014233099937438964	-0.021124500274658203	0.9378350219726562	0.01650819969177246	-0.02170050048828125	0.9793809814453125	0.017458999633789062	0.019113100051879883	0.8970880126953125	0.01860969924926758	0.01488990020751953	0.9221820068359375	0.016412599563598633	0.008757590293884277	0.9495	0.018253400802612306	-0.000282119005918502	0.98697998046875	0.043707000732421876	0.06730380249023438	0.9583250122070313	0.036485000610351564	0.05404169845581055	0.9723820190429687	0.028485799789428713	0.04148749923706055	0.983926025390625	0.018757099151611327	0.019322399139404298	1.0011099853515626	-0.022644399642944336	-0.017294099807739258	1.0603199462890625
10	0.3333333333333333	0.00618798017501831	-0.12073300170898438	0.9950230102539063	0.013023699760437012	-0.09633809661865235	1.0041799926757813	0.010079400062561035	-0.07189299774169922	1.0218900146484375	0.006312950134277344	-0.04007229995727539	1.040050048828125	0.018953800201416016	-0.06406109619140625	0.8974240112304688	0.020905500411987306	-0.05930640029907226	0.9201849975585937	0.019935699462890626	-0.05419139862060547	0.9424990234375	0.01870289993286133	-0.044727100372314456	0.9814630126953126	0.008952710151672363	-0.01719879913330078	0.8823460083007812	0.014300100326538086	-0.02043600082397461	0.9075780029296875	0.014750699996948242	-0.02140920066833496	0.93818701171875	0.016824600219726562	-0.021908599853515624	0.9797589721679687	0.01800860023498535	0.018683200836181642	0.8972680053710937	0.019160600662231447	0.014518899917602539	0.9223629760742188	0.016962499618530275	0.008480799674987794	0.9497020263671875	0.018623600006103514	-0.000471789002418518	0.9871630249023438	0.0438744010925293	0.06708679962158202	0.9583389892578125	0.036715499877929686	0.05386000061035156	0.9724429931640625	0.02874650001525879	0.04133990097045898	0.9840150146484375	0.01907789993286133	0.019215599060058593	1.0013300170898438	-0.02226499938964844	-0.017453399658203125	1.0608299560546874
11	0.36666666666666664	0.006499969959259033	-0.12108899688720703	0.9953930053710938	0.013313599586486816	-0.096622802734375	1.00447998046875	0.010380399703979493	-0.07219180297851563	1.0221599731445312	0.0065860400199890135	-0.0402869987487793	1.0401099853515625	0.01932029914855957	-0.06438780212402344	0.8976309814453125	0.021246999740600587	-0.05965330123901367	0.9203759765625	0.02022260093688965	-0.05454059982299805	0.9426710205078125	0.01891119956970215	-0.04501179885864258	0.9817490234375	0.009305709838867188	-0.01743829917907715	0.882552001953125	0.014571700096130371	-0.020657899856567383	0.9078499755859375	0.014967599868774413	-0.021719400405883788	0.938489013671875	0.01715839958190918	-0.022190700531005858	0.979905029296875	0.01829789924621582	0.018347299575805665	0.897458984375	0.019427499771118163	0.014204999923706055	0.922552978515625	0.017148399353027345	0.008142589569091797	0.9499169921875	0.01886289978027344	-0.000726589024066925	0.9874550170898437	0.044147701263427735	0.06684079742431641	0.95856201171875	0.03698680114746094	0.05360359954833984	0.9726599731445312	0.028972200393676758	0.041057201385498045	0.9842050170898438	0.019281700134277345	0.018937799453735353	1.00147998046875	-0.02197599983215332	-0.0176875	1.060719970703125
12	0.4	0.006063809871673584	-0.12157599639892579	0.9959110107421875	0.013000800132751464	-0.09711170196533203	1.0049000244140625	0.010342300415039063	-0.07265650177001953	1.0224500122070312	0.006741010189056397	-0.04068949890136719	1.04047998046875	0.019384899139404298	-0.06509329986572265	0.897843994140625	0.021228500366210937	-0.06035189819335938	0.9205399780273438	0.02016200065612793	-0.05521440124511719	0.9427869873046875	0.018806900024414062	-0.045619800567626954	0.9819130249023438	0.009953269958496094	-0.018064599990844726	0.8825800170898438	0.014875200271606446	-0.021272899627685547	0.90789599609375	0.014979700088500976	-0.02228230094909668	0.9385330200195312	0.016836999893188476	-0.022760900497436523	0.98010498046875	0.01911429977416992	0.01776969909667969	0.8975009765625	0.02000320053100586	0.013623700141906739	0.9226259765625	0.017401399612426757	0.007559400081634521	0.9500089721679688	0.018981800079345704	-0.0013379100561141959	0.9875689697265625	0.04546969985961914	0.06607689666748047	0.9589210205078125	0.03802119827270508	0.05286930084228516	0.9729219970703125	0.029754899978637697	0.04042169952392578	0.9844190063476562	0.019672399520874025	0.018351499557495116	1.00147998046875	-0.022035400390625	-0.017903099060058592	1.0613900146484374
13	0.43333333333333335	0.005529260158538819	-0.12228099822998047	0.9963790283203126	0.012737500190734862	-0.0977166976928711	1.00525	0.010145099639892578	-0.07319580078125	1.0228099975585938	0.006798319816589356	-0.04116400146484375	1.040550048828125	0.019168399810791017	-0.06554350280761718	0.8977869873046875	0.020965200424194336	-0.06090530014038086	0.9205910034179687	0.019889699935913087	-0.055822399139404295	0.9428670043945313	0.01854509925842285	-0.04631470108032226	0.9819810180664063	0.010484999656677246	-0.018715599060058593	0.8824609985351562	0.015121100425720214	-0.021878599166870117	0.9078369750976563	0.014904800415039063	-0.022871299743652342	0.9384739990234375	0.01668079948425293	-0.023414499282836915	0.9799710083007812	0.019641300201416016	0.01731159973144531	0.8974879760742187	0.02031599998474121	0.013137900352478027	0.9225670166015625	0.017600500106811523	0.007077539920806885	0.949885009765625	0.018983600616455078	-0.001991750001907348	0.9874940185546875	0.046389900207519534	0.06538330078125	0.9591329956054687	0.03873379898071289	0.0521775016784668	0.9730079956054688	0.030268800735473632	0.03976240158081055	0.9844099731445313	0.019898000717163085	0.017710100173950194	1.00122998046875	-0.021737199783325195	-0.0182588005065918	1.06147998046875
14	0.4666666666666667	0.005630640029907227	-0.1231989974975586	0.9973629760742188	0.012667599678039551	-0.09860690307617187	1.0059400024414062	0.010222100257873535	-0.07382520294189453	1.02325	0.006912620067596436	-0.041681800842285156	1.0408699951171876	0.01837809944152832	-0.06702890014648437	0.897885009765625	0.020190900802612304	-0.0622218017578125	0.92072998046875	0.019215599060058593	-0.05703369903564453	0.9429990234375	0.018001600265502928	-0.04733319854736328	0.9820440063476562	0.010324999809265137	-0.020367399215698242	0.8822789916992188	0.014665800094604492	-0.023340299606323243	0.9077620239257812	0.014291299819946288	-0.024116199493408205	0.9384719848632812	0.016173299789428712	-0.02444459915161133	0.9799860229492188	0.019461700439453125	0.015792599678039553	0.8969580078125	0.020044900894165038	0.01178339958190918	0.9220819702148437	0.017254899978637696	0.005912519931793213	0.9495599975585938	0.018659900665283204	-0.0029409201145172118	0.9872369995117187	0.04648519897460938	0.06411060333251953	0.9582739868164063	0.03880339813232422	0.05105680084228516	0.9722579956054688	0.03030299949645996	0.038792301177978515	0.9837410278320312	0.019741899490356447	0.016820199966430666	1.001010009765625	-0.0214158992767334	-0.018515300750732423	1.0613800048828126
15	0.5	0.0065206298828125	-0.12446399688720704	0.9985809936523438	0.013218899726867676	-0.09968019866943359	1.0068800048828126	0.010522100448608398	-0.07468779754638671	1.0239500122070313	0.007411389827728271	-0.04215019989013672	1.041010009765625	0.016990699768066407	-0.0692873992919922	0.8981370239257812	0.018898799896240236	-0.06435569763183593	0.9208369750976563	0.017937000274658204	-0.058929798126220706	0.9430969848632812	0.017000200271606446	-0.0487947998046875	0.9822880249023438	0.00971382999420166	-0.023163299560546875	0.881843994140625	0.013741900444030761	-0.025801000595092775	0.9074749755859375	0.013125399589538574	-0.026229099273681642	0.9380919799804688	0.015111499786376954	-0.02587299919128418	0.9798720092773437	0.01907819938659668	0.012972299575805663	0.8959650268554687	0.01926460075378418	0.009384010314941406	0.9212169799804687	0.016357099533081055	0.003937939882278442	0.9487520141601562	0.017835100173950194	-0.004271639823913574	0.9866199951171875	0.045417499542236325	0.06196089935302734	0.9557919921875	0.03794950103759766	0.04923369979858398	0.9701920166015625	0.029699899673461913	0.03718259811401367	0.9820980224609375	0.01918869972229004	0.015620900154113769	1.0000499877929687	-0.020649599075317382	-0.01892070007324219	1.0616400146484375
